<?xml version="1.0" standalone="no"?>
<!DOCTYPE svg PUBLIC "-//W3C//DTD SVG 20010904//EN"
 "http://www.w3.org/TR/2001/REC-SVG-20010904/DTD/svg10.dtd">
<svg version="1.0" xmlns="http://www.w3.org/2000/svg"
 width="512.000000pt" height="512.000000pt" viewBox="0 0 512.000000 512.000000"
 preserveAspectRatio="xMidYMid meet">
<metadata>
Created by potrace 1.11, written by Peter Selinger 2001-2013
</metadata>
<g transform="translate(0.000000,512.000000) scale(0.100000,-0.100000)"
fill="#000000" stroke="none">
<path d="M2921 5104 c-170 -46 -312 -194 -350 -364 -6 -25 -8 -81 -6 -125 6
-122 44 -214 128 -303 89 -93 194 -142 322 -148 272 -13 492 188 501 458 3 92
-7 143 -46 226 -51 109 -149 197 -273 244 -68 26 -202 32 -276 12z"/>
<path d="M2405 3825 c-128 -21 -286 -65 -390 -110 -16 -7 -100 -41 -185 -75
-254 -102 -323 -143 -440 -260 -90 -89 -140 -160 -208 -295 -64 -129 -82 -189
-76 -261 12 -165 149 -294 313 -294 74 0 131 20 197 70 45 34 60 56 113 159
61 120 111 184 166 215 36 20 299 125 303 121 2 -1 -13 -67 -33 -146 -20 -79
-38 -151 -40 -159 -2 -8 -22 -89 -45 -180 -48 -187 -56 -288 -35 -392 29 -137
89 -244 206 -368 28 -30 73 -78 98 -106 25 -27 88 -96 140 -152 51 -56 102
-112 113 -124 11 -13 60 -66 109 -119 114 -123 150 -169 188 -244 32 -65 40
-92 102 -337 21 -87 57 -231 80 -320 22 -90 42 -174 45 -188 19 -93 94 -186
184 -229 75 -35 192 -36 261 -2 111 53 180 152 187 266 3 52 -9 114 -78 391
-45 181 -84 338 -86 348 -2 10 -8 33 -13 50 -6 17 -12 42 -15 56 -33 168 -86
302 -153 385 -47 58 -211 239 -430 474 -29 31 -52 63 -52 71 0 29 166 672 171
664 3 -5 18 -47 33 -94 59 -182 133 -290 260 -379 57 -40 332 -178 380 -190
134 -34 291 44 356 175 19 40 24 65 24 134 0 73 -4 93 -28 142 -38 78 -88 119
-242 198 l-130 66 -65 190 c-36 104 -79 216 -95 249 -48 101 -124 206 -214
296 -157 157 -323 248 -546 300 -71 17 -334 19 -430 4z"/>
<path d="M1891 1748 c-28 -74 -133 -336 -141 -353 -5 -11 -26 -60 -46 -110
-21 -49 -53 -112 -71 -140 -18 -27 -160 -178 -316 -335 -156 -157 -292 -298
-304 -315 -81 -118 -62 -296 42 -400 64 -65 125 -89 225 -89 138 -1 143 2 537
398 373 374 376 378 457 581 27 66 57 139 68 163 34 78 34 95 -4 134 -28 30
-114 124 -227 247 -123 136 -169 188 -183 212 -21 35 -26 36 -37 7z"/>
</g>
</svg>
